 <svg  version="1.0" xmlns="http://www.w3.org/2000/svg"  width="300.000000pt" height="200.000000pt" viewBox="0 0 300.000000 200.000000"  preserveAspectRatio="xMidYMid meet">  <g transform="translate(0.000000,200.000000) scale(0.050000,-0.050000)" fill="#000000" stroke="none"> <path d="M252 3968 c-7 -17 -12 -34 -12 -37 0 -13 191 34 209 51 11 11 -22 18 -83 18 -74 0 -105 -9 -114 -32z"/> <path d="M573 3986 c42 -8 82 -126 44 -126 -10 0 -17 -13 -17 -30 0 -19 19 -30 50 -30 28 0 50 -9 50 -20 0 -11 7 -20 17 -20 9 0 12 44 8 97 l-9 98 69 13 c119 22 188 -70 161 -213 -5 -26 3 -57 17 -70 22 -18 26 6 22 132 -4 115 0 144 16 118 12 -19 14 -46 6 -60 -11 -19 -7 -19 17 0 17 14 31 48 31 75 l0 50 -262 -3 c-145 -1 -244 -6 -220 -11z"/> <path d="M1109 3959 c0 -69 69 -98 269 -112 178 -13 226 -31 247 -92 7 -20 22 -20 72 -2 53 20 70 18 104 -10 45 -36 36 -103 -13 -103 -15 0 -28 -13 -28 -30 0 -16 12 -30 28 -30 15 0 38 -13 52 -30 14 -16 33 -30 42 -30 10 0 18 14 18 30 0 17 7 30 15 30 8 0 51 35 95 76 61 58 109 82 200 102 135 29 138 30 236 108 42 33 97 57 134 58 35 1 68 15 74 30 6 15 25 23 43 17 18 -6 47 -1 63 9 21 13 -18 19 -125 20 -155 0 -449 -127 -536 -232 -39 -46 -117 -35 -138 19 -10 27 -41 54 -70 61 -28 7 -51 26 -51 42 0 36 -46 39 -105 7 -35 -19 -48 -15 -78 22 -23 28 -45 38 -61 28 -46 -28 -92 -27 -230 5 -245 57 -257 57 -257 7z"/> <path d="M2806 3988 c6 -7 42 -14 78 -16 54 -3 68 -12 76 -57 l10 -54 65 42 c111 70 86 97 -88 97 -85 0 -148 -6 -141 -12z"/> <path d="M3278 3958 c40 -44 82 -37 82 13 0 19 -21 29 -61 29 l-61 0 40 -42z"/> <path d="M3987 3950 c112 -47 119 -47 164 -14 76 55 59 64 -116 63 l-165 -1 117 -48z"/> <path d="M4301 3965 c4 -88 25 -106 86 -75 48 25 60 25 84 2 16 -16 67 -35 113 -43 47 -8 118 -26 158 -40 90 -32 132 -12 99 48 -42 80 3 123 116 110 63 -8 103 -4 111 11 10 15 -28 22 -128 22 -83 0 -138 -8 -131 -19 20 -32 -23 -42 -49 -11 -36 43 -66 37 -54 -10 8 -30 0 -40 -30 -40 -23 0 -44 17 -50 40 -15 57 -327 62 -325 5z"/> <path d="M5260 3911 c0 -49 -9 -155 -20 -235 -46 -337 -105 -835 -115 -961 l-9 -135 -73 -20 c-75 -21 -148 -59 -113 -60 11 0 76 17 144 38 102 31 125 33 134 10 6 -15 31 -26 56 -23 28 3 44 -5 41 -20 -3 -14 5 -23 17 -20 13 3 27 -6 32 -19 10 -27 -87 -73 -441 -208 -297 -113 -281 -110 -267 -58 6 22 2 40 -8 40 -10 0 -18 14 -18 30 0 18 -19 30 -49 30 -26 0 -62 14 -79 31 -33 33 -142 25 -221 -16 -49 -26 -17 -43 251 -134 l191 -65 155 62 c85 34 172 62 192 62 21 0 42 7 47 15 5 8 75 38 156 65 81 28 156 61 167 74 11 13 142 72 290 132 l270 109 6 134 c5 123 3 132 -30 114 -52 -27 -466 -163 -499 -163 -35 0 -34 7 13 100 22 43 40 99 40 125 0 57 35 96 72 81 16 -6 28 0 28 13 0 13 -8 19 -17 13 -9 -6 -16 36 -16 94 1 57 -6 130 -14 162 -13 50 -10 56 22 47 34 -8 36 -1 25 77 -10 65 -5 94 18 120 18 18 20 27 6 19 -35 -19 -15 90 20 112 17 11 18 16 3 17 -27 0 -56 101 -33 118 9 7 17 28 18 47 5 104 9 119 35 109 15 -6 39 -2 55 8 18 11 -16 17 -97 18 -87 0 -125 -8 -125 -25 0 -26 -113 -1081 -132 -1230 -7 -56 -20 -85 -39 -85 -41 0 -38 49 41 720 38 325 70 597 70 605 0 8 -18 15 -40 15 -51 0 -46 25 -122 -730 -63 -629 -76 -700 -120 -656 -16 16 -13 90 10 269 17 136 49 409 71 607 23 198 46 394 53 435 9 60 5 75 -20 75 -25 0 -32 -21 -32 -89z"/> <path d="M5909 3981 c7 -11 27 -14 45 -7 24 9 30 5 21 -17 -6 -17 -3 -43 7 -59 12 -20 17 -9 18 37 0 56 -7 65 -51 65 -28 0 -46 -9 -40 -19z"/> <path d="M3590 3880 c-121 -19 -377 -59 -570 -88 -970 -146 -1020 -158 -1020 -251 1 -48 264 -1606 302 -1781 35 -166 98 -269 98 -162 0 44 236 135 293 114 17 -7 113 18 214 55 101 37 386 143 633 234 248 91 469 185 491 208 23 22 58 51 79 62 42 24 -158 1556 -211 1620 -29 35 -30 35 -309 -11z m250 -68 c0 -4 46 -308 102 -675 56 -367 104 -697 105 -735 l3 -67 -807 -289 c-444 -159 -811 -284 -817 -279 -6 6 -77 376 -158 824 -82 447 -154 834 -160 861 -7 26 -9 48 -5 49 4 0 385 71 847 158 881 164 890 166 890 153z"/> <path d="M378 3838 c-15 -27 -24 -59 -21 -73 3 -16 -18 -25 -56 -25 -34 0 -61 7 -61 16 0 9 -14 34 -31 55 -18 22 -26 28 -19 14 17 -35 -10 -77 -30 -45 -12 19 -25 19 -61 0 -46 -25 -24 -57 48 -68 13 -2 33 -9 45 -17 12 -8 50 -3 85 10 48 18 68 18 87 -1 18 -18 19 -24 0 -24 -16 0 -24 -36 -24 -102 0 -72 7 -99 25 -93 14 5 25 22 25 39 0 17 13 45 28 63 18 22 19 33 4 33 -30 0 -28 54 3 67 15 6 8 16 -20 24 -35 11 -40 21 -25 49 10 19 13 40 6 47 -7 7 -3 13 9 13 13 0 28 -9 35 -20 7 -12 21 -15 31 -9 11 6 19 3 19 -8 0 -11 -11 -24 -25 -30 -14 -5 -7 -11 16 -11 23 -1 52 -13 65 -26 19 -19 24 -17 24 8 0 17 -14 37 -30 43 -17 7 -28 22 -25 35 3 12 -12 26 -33 29 -21 3 -45 17 -53 30 -10 17 -23 10 -41 -23z"/> <path d="M722 3704 c-10 -19 -18 -43 -19 -54 0 -11 -21 -25 -47 -32 -26 -7 -43 -24 -39 -40 33 -128 33 -252 -1 -287 -48 -50 -45 -95 6 -127 23 -15 37 -38 31 -53 -6 -17 7 -26 40 -26 43 0 48 7 38 49 -10 39 -4 52 28 60 23 6 41 17 41 25 0 8 36 12 80 9 82 -4 120 27 120 99 0 24 -12 27 -60 13 -47 -13 -60 -11 -60 11 0 16 -4 29 -10 29 -23 0 -90 -82 -90 -110 0 -41 -54 -38 -77 5 -14 27 -18 228 -5 307 6 34 96 52 131 26 33 -24 40 -22 61 17 25 50 -5 135 -33 90 -11 -17 -27 -17 -65 1 -43 19 -54 17 -70 -12z"/> <path d="M1390 3678 c-238 -17 -369 -62 -321 -110 44 -44 39 -54 -19 -40 -29 7 -50 4 -50 -8 0 -11 14 -20 30 -20 17 0 41 -22 53 -49 13 -28 30 -45 39 -40 8 5 21 0 29 -13 19 -30 48 17 49 77 0 81 123 129 245 96 48 -13 55 -10 55 29 0 30 9 41 28 34 31 -13 108 35 80 49 -10 5 -108 2 -218 -5z"/> <path d="M4910 3680 c-7 -12 -21 -16 -30 -10 -9 6 -24 0 -32 -13 -8 -14 -6 -18 8 -10 11 8 26 6 32 -4 15 -24 129 -24 144 1 15 24 -27 55 -76 56 -18 0 -39 -9 -46 -20z"/> <path d="M4167 3627 c-12 -5 -18 -26 -13 -48 6 -21 18 -34 27 -28 9 5 21 1 28 -9 6 -10 30 -13 54 -7 26 7 38 3 31 -8 -16 -27 45 -20 103 11 47 26 48 42 0 49 -15 3 -47 16 -71 29 -43 24 -116 29 -159 11z"/> <path d="M75 3516 l-75 -20 0 -390 0 -390 46 11 c69 17 194 72 194 84 0 6 -8 6 -18 0 -10 -6 -22 0 -27 13 -5 15 -37 23 -80 20 l-73 -5 8 114 c5 63 -1 126 -12 139 -11 13 -17 86 -14 161 l6 137 70 23 c46 15 82 16 106 3 33 -17 36 -11 30 48 -7 75 -38 85 -161 52z"/> <path d="M5977 3349 c4 -67 -3 -122 -18 -140 -19 -23 -19 -29 1 -29 20 0 19 -7 -1 -31 -19 -23 -20 -41 -3 -75 12 -24 26 -62 31 -84 4 -22 9 75 11 215 1 140 -5 255 -13 255 -8 0 -12 -50 -8 -111z"/> <path d="M1601 3425 c-1 -14 -14 -25 -31 -25 -16 0 -30 -10 -30 -21 0 -12 11 -15 23 -7 13 8 7 -8 -15 -37 -41 -55 -74 -55 -53 1 11 30 8 31 -21 7 -19 -16 -34 -21 -34 -13 0 8 -14 3 -31 -11 -25 -20 -26 -29 -5 -43 17 -11 8 -13 -24 -6 -60 13 -225 -14 -221 -36 1 -8 -11 -29 -28 -46 -17 -17 -31 -44 -31 -59 0 -28 -23 -37 -77 -30 -15 2 -22 -5 -15 -16 6 -10 -2 -24 -18 -30 -68 -26 -33 -78 45 -67 107 15 538 107 559 120 10 6 71 17 137 24 153 17 191 23 235 41 45 18 35 80 -12 76 -27 -2 -32 7 -22 40 10 35 8 38 -14 18 -37 -35 -64 -31 -117 18 -42 39 -48 40 -64 10 -29 -50 -52 -40 -96 42 -21 41 -40 64 -40 50z"/> <path d="M1258 3358 c-24 -15 -24 -21 2 -38 41 -26 54 -25 67 8 13 36 -31 55 -69 30z"/> <path d="M278 3315 c-2 -14 -4 -37 -5 -51 -2 -14 -16 -33 -31 -43 -43 -26 -10 -85 43 -77 34 5 47 23 56 80 7 41 5 70 -4 64 -9 -6 -17 4 -17 21 0 37 -39 42 -42 6z"/> <path d="M269 2942 c1 -143 16 -168 82 -138 28 13 46 33 41 44 -6 12 -20 59 -33 105 -37 135 -91 128 -90 -11z"/> <path d="M4721 2861 c-18 -11 -19 -20 -3 -30 12 -7 33 -7 47 2 17 10 16 4 -2 -19 -24 -29 -23 -34 6 -34 21 0 28 -9 19 -25 -8 -14 4 -9 27 11 25 23 46 29 54 16 7 -11 26 -15 42 -9 23 9 25 18 7 39 -12 15 -31 22 -41 16 -10 -6 -30 -3 -43 7 -41 32 -86 42 -113 26z"/> <path d="M4610 2820 c7 -11 -1 -14 -19 -8 -37 15 -41 -14 -6 -51 21 -22 15 -23 -35 -9 -166 46 -325 6 -276 -69 17 -26 51 -32 164 -29 106 3 140 -2 131 -20 -7 -13 0 -10 15 8 14 17 38 28 52 23 15 -5 32 10 38 33 6 23 17 38 24 33 8 -5 27 0 43 10 22 14 14 19 -31 21 -34 2 -45 7 -25 12 49 13 44 39 -10 53 -64 18 -79 16 -65 -7z"/> <path d="M5980 2477 c0 -12 -18 -38 -40 -57 l-41 -35 43 -11 c34 -9 41 -23 33 -63 -5 -28 -2 -51 7 -51 9 0 16 54 15 120 0 66 -4 120 -9 120 -4 0 -8 -10 -8 -23z"/> <path d="M5633 2325 c-10 -16 42 -40 161 -77 97 -29 183 -57 191 -62 8 -4 15 1 15 13 0 12 -16 28 -35 35 -54 20 -125 79 -111 93 20 20 -21 15 -54 -7 -26 -17 -25 -19 5 -20 19 0 35 -9 35 -20 0 -27 -12 -25 -82 11 -32 17 -67 26 -77 20 -10 -6 -21 0 -26 13 -6 18 -11 18 -22 1z"/> <path d="M1713 2287 c-46 -47 22 -152 95 -146 67 5 87 1 116 -26 66 -64 216 -98 216 -50 0 38 -163 129 -225 126 -38 -2 -55 8 -55 29 0 63 -104 109 -147 67z"/> <path d="M5699 2199 c-16 -10 -56 -14 -89 -9 -55 9 -54 7 16 -25 43 -20 70 -43 60 -53 -9 -11 -5 -12 10 -3 15 8 50 9 79 1 53 -13 53 -13 -26 -49 -64 -29 -72 -39 -44 -51 46 -19 102 3 83 33 -9 14 -5 18 9 9 13 -8 23 -5 23 7 0 14 20 17 53 8 35 -8 48 -6 40 8 -7 11 1 26 19 33 43 16 48 15 48 -9 0 -12 -7 -18 -15 -13 -8 4 -31 -9 -50 -29 -33 -35 -33 -37 4 -37 27 0 36 -10 28 -29 -6 -17 -17 -29 -24 -28 -7 2 -43 -9 -80 -23 -70 -27 -55 -59 27 -59 30 0 33 4 13 17 -38 24 6 48 57 32 47 -15 54 -50 10 -50 -16 0 -30 -9 -30 -20 0 -11 18 -20 40 -20 32 0 40 13 40 70 0 43 -10 70 -25 70 -17 1 -15 7 5 20 26 16 26 19 1 20 -23 0 -24 5 -5 24 74 74 -6 137 -90 71 -13 -10 -44 -12 -69 -4 -43 14 -43 15 -7 42 21 15 27 27 15 27 -12 0 -28 -9 -35 -20 -7 -11 -21 -20 -32 -20 -11 0 -16 7 -10 16 18 31 -18 63 -49 43z"/> <path d="M5244 2178 c5 -15 70 -46 143 -68 74 -22 143 -54 153 -70 14 -22 19 -23 20 -4 0 15 9 21 20 14 11 -7 20 -2 20 11 0 18 7 18 28 0 18 -14 33 -16 41 -3 11 18 -46 47 -82 40 -49 -8 -87 5 -87 32 0 17 -11 31 -25 32 -81 5 -151 15 -193 29 -36 11 -45 8 -38 -13z"/> <path d="M4153 2150 c-31 -16 -64 -25 -73 -20 -17 11 -137 -33 -225 -82 -30 -17 -55 -25 -55 -19 0 7 -20 -1 -45 -17 -25 -16 -79 -35 -120 -43 -42 -7 -80 -22 -86 -31 -6 -10 -24 -18 -40 -18 -15 0 -80 -24 -143 -53 -64 -29 -127 -51 -141 -49 -14 2 -25 -6 -25 -17 0 -12 16 -22 35 -23 22 -1 25 -5 9 -11 -14 -6 -39 0 -55 14 -22 18 -29 18 -29 0 0 -13 -9 -18 -19 -12 -11 7 -35 3 -55 -9 -20 -12 -112 -46 -206 -77 -184 -61 -198 -80 -84 -118 41 -14 92 -34 114 -44 22 -10 103 -47 180 -82 77 -34 183 -84 235 -111 l95 -48 113 60 c62 33 120 60 130 60 9 0 73 26 142 57 69 31 224 100 345 153 440 192 581 268 581 309 0 32 -10 38 -50 30 -49 -9 -49 -8 4 13 30 12 55 30 55 40 0 25 -21 22 -80 -12 -72 -41 -186 -41 -131 1 21 16 66 30 100 30 57 1 58 3 16 20 -28 11 -65 10 -97 -2 -63 -24 -128 -25 -128 -1 0 9 20 23 45 31 l45 13 -45 18 c-25 10 -60 13 -78 6 -23 -9 -29 -5 -19 11 18 29 -18 30 -71 1 -61 -32 -115 -6 -65 32 53 40 -3 40 -79 0z m40 -74 c-12 -8 -45 -10 -73 -5 -41 8 -43 6 -11 -7 46 -20 -13 -46 -65 -29 -37 13 10 65 57 65 20 0 42 9 49 20 8 12 22 10 39 -5 19 -18 20 -29 4 -39z m175 -19 c-7 -11 -40 -14 -75 -8 -43 7 -51 6 -24 -6 51 -22 -4 -45 -72 -30 -33 7 -39 5 -20 -8 34 -25 -20 -49 -72 -32 -26 8 -28 6 -8 -8 36 -26 -23 -49 -85 -34 -24 6 -96 -8 -159 -32 -64 -23 -121 -38 -128 -31 -6 7 1 12 17 12 23 1 23 4 -2 22 -24 16 -21 18 13 9 23 -7 64 -4 90 7 67 27 124 47 147 53 11 3 70 25 130 49 188 76 281 90 248 37z m-56 -114 c-60 -11 -110 18 -62 37 23 9 52 6 68 -7 24 -19 23 -24 -6 -30z m-45 -41 c76 -60 63 -91 -28 -68 -43 12 -43 13 -8 39 34 25 31 27 -26 27 -70 0 -105 32 -50 46 19 5 36 10 37 12 1 1 35 -24 75 -56z m146 -26 c-49 -27 -125 6 -84 36 27 20 44 20 73 2 28 -17 31 -26 11 -38z m237 8 c-28 -4 -50 -15 -50 -25 0 -24 -114 -25 -129 -1 -20 33 129 78 181 54 l48 -22 -50 -6z m-490 -17 c0 -6 -31 -8 -69 -3 -51 6 -64 2 -50 -16 27 -31 -17 -47 -90 -33 -37 7 -52 3 -44 -10 8 -13 -13 -21 -56 -21 -61 0 -66 4 -41 29 17 16 38 24 48 18 10 -6 32 2 48 18 16 16 33 25 39 20 5 -5 39 3 77 19 62 26 138 15 138 -21z m328 -71 c-14 -22 -91 -20 -128 3 -24 15 -20 22 20 37 51 19 127 -9 108 -40z m-940 32 c34 -13 45 -68 14 -68 -10 0 -23 -14 -30 -31 -9 -24 -2 -29 26 -19 21 6 44 2 51 -9 8 -12 -7 -21 -37 -21 -27 0 -55 -9 -62 -20 -7 -11 -28 -19 -46 -18 -29 2 -29 4 2 12 22 6 32 21 26 38 -6 15 -1 28 12 28 12 0 17 6 10 13 -7 7 -4 28 7 48 13 25 11 39 -6 46 -36 14 -4 15 33 1z m669 -6 c41 -26 -5 -45 -71 -31 -39 8 -48 6 -29 -7 41 -29 -6 -49 -82 -36 -36 6 -54 6 -40 0 54 -25 23 -53 -45 -42 -53 9 -70 4 -70 -17 0 -16 -16 -27 -35 -26 -73 7 -107 -3 -93 -26 8 -14 5 -18 -7 -10 -31 19 -85 -6 -85 -40 0 -16 -9 -24 -20 -17 -32 20 16 90 61 90 22 0 45 13 51 28 6 15 27 23 46 18 20 -5 50 5 67 21 16 17 35 27 40 21 5 -5 58 13 117 40 119 54 154 60 195 34z m-417 -79 c6 -4 -9 -2 -32 5 -26 8 -51 2 -66 -15 -13 -16 -41 -24 -63 -19 -57 15 -48 41 15 41 30 0 58 11 62 23 7 22 20 17 84 -35z m548 31 c31 -22 8 -37 -186 -121 -223 -97 -306 -110 -318 -50 -5 25 4 31 32 24 21 -6 51 2 66 16 15 15 46 30 68 34 22 4 47 17 55 30 8 13 15 16 15 7 0 -14 31 -1 160 68 44 23 68 21 108 -8z m-1299 -108 c39 -18 71 -45 71 -60 0 -43 36 -30 53 19 8 25 13 52 11 60 -8 30 22 14 68 -35 45 -49 100 -50 132 -2 8 11 20 14 28 7 8 -8 -6 -33 -32 -55 -25 -22 -38 -40 -28 -40 10 0 5 -9 -12 -20 -20 -13 -22 -19 -5 -20 14 0 25 -9 25 -20 0 -31 -54 -23 -67 10 -7 17 -3 30 8 30 10 0 19 9 19 20 0 29 -55 25 -66 -5 -5 -15 -16 -18 -26 -7 -11 10 -8 21 7 26 31 11 33 46 4 46 -33 0 -73 -47 -64 -75 12 -36 -28 -31 -42 5 -7 17 -26 30 -45 30 -21 0 -28 11 -21 31 9 22 -5 34 -47 42 -33 7 -60 20 -60 30 0 23 8 22 89 -17z m422 -128 c2 -17 -12 -31 -33 -33 -42 -3 -43 -2 -26 44 15 39 53 31 59 -11z m329 23 c0 -28 -69 -61 -129 -61 -28 0 -51 10 -51 21 0 12 17 16 38 10 23 -8 42 -1 49 18 13 34 93 43 93 12z"/> <path d="M5300 2084 c0 -9 34 -29 75 -45 41 -16 82 -32 90 -36 8 -3 15 3 15 15 0 12 -22 27 -50 34 -27 7 -50 20 -50 30 0 10 -18 18 -40 18 -22 0 -40 -7 -40 -16z"/> <path d="M4891 1994 c-44 -23 -68 -45 -55 -49 46 -16 24 -50 -26 -40 -38 7 -50 1 -50 -26 0 -20 -32 -55 -70 -79 -69 -42 -77 -80 -18 -80 16 0 66 23 111 52 69 44 115 59 202 67 8 0 15 16 15 34 0 25 13 29 63 20 34 -7 71 -13 82 -13 10 0 14 -15 7 -32 -11 -28 -2 -31 59 -19 108 20 152 0 136 -65 -17 -74 -17 -74 -83 -27 -32 23 -63 37 -69 31 -6 -6 -64 -1 -128 11 -111 21 -119 20 -157 -23 -50 -58 -228 -176 -263 -176 -44 0 -30 -72 18 -96 151 -75 188 -82 246 -43 l56 36 -83 34 c-101 40 -104 57 -19 110 75 47 268 38 350 -16 25 -17 52 -24 60 -17 8 8 1 22 -15 32 -24 15 -23 20 8 32 20 8 42 4 50 -9 14 -23 118 -20 157 4 11 7 32 -1 45 -17 14 -17 37 -30 52 -30 15 0 33 -23 40 -51 7 -28 18 -46 24 -40 5 6 24 -1 41 -14 21 -18 26 -18 17 -1 -8 13 -8 27 1 32 22 13 109 -23 98 -41 -5 -8 11 -15 35 -15 74 0 53 56 -52 137 -61 47 -95 87 -88 104 13 34 -20 58 -38 28 -10 -15 -21 -15 -39 0 -14 12 -98 57 -186 100 -88 43 -164 86 -168 95 -6 15 -262 110 -280 103 -4 -1 -43 -21 -86 -43z"/> <path d="M5580 1991 c0 -18 20 -40 45 -50 35 -13 27 -16 -38 -12 -45 3 -92 12 -103 18 -12 8 -16 -2 -11 -23 10 -38 87 -97 87 -67 0 10 22 18 49 18 71 0 126 58 71 75 -22 7 -53 26 -70 43 -27 27 -30 26 -30 -2z"/> <path d="M1640 1890 c0 -50 -8 -106 -18 -125 -33 -62 -79 -295 -62 -313 40 -41 80 16 129 182 29 97 61 196 71 221 15 36 11 54 -20 85 -68 68 -100 52 -100 -50z"/> <path d="M0 1885 c0 -21 35 -53 85 -80 275 -146 283 -306 26 -477 -93 -62 -151 -148 -100 -148 21 0 140 67 201 113 34 26 72 47 85 47 13 0 23 9 23 20 0 10 23 25 50 32 28 7 50 22 50 34 0 11 5 15 12 9 7 -7 5 -24 -4 -39 -9 -14 -20 -44 -24 -66 -4 -22 -10 -53 -14 -70 -4 -16 -8 -36 -8 -43 -8 -64 -299 -141 -355 -94 -22 18 -27 4 -27 -71 0 -110 -3 -109 156 -23 103 56 129 63 138 38 17 -44 -123 -177 -215 -205 -78 -23 -79 -25 -78 -118 1 -79 5 -87 22 -52 12 24 55 53 99 66 43 13 78 32 78 43 0 10 18 19 39 19 27 0 36 10 28 30 -6 17 -4 31 6 33 75 11 107 9 107 -7 0 -10 10 -12 21 -5 12 7 41 -4 65 -24 39 -33 40 -33 16 -2 -24 31 -24 34 5 23 36 -13 42 -43 16 -84 -9 -14 -31 -20 -51 -12 -24 9 -33 4 -30 -14 6 -40 -37 -138 -61 -138 -11 0 -39 -16 -61 -35 -23 -19 -48 -36 -56 -37 -8 -1 -40 -12 -71 -25 -31 -13 -65 -18 -75 -12 -10 6 -18 1 -18 -12 0 -14 -17 -19 -40 -13 -35 9 -40 0 -40 -77 l0 -87 95 47 c106 53 304 128 394 148 46 11 64 31 85 96 15 45 52 105 82 132 30 28 77 75 104 104 28 29 84 88 125 132 74 76 91 179 31 179 -29 0 -476 -159 -540 -192 -30 -16 -59 -28 -64 -28 -6 0 61 110 149 245 258 397 206 512 -309 688 -166 56 -152 55 -152 12z"/> <path d="M5710 1859 c9 -13 -5 -16 -38 -8 -52 13 -76 -19 -27 -35 43 -14 166 35 126 51 -50 19 -75 16 -61 -8z"/> <path d="M1854 1812 c20 -26 43 -44 52 -38 9 5 27 1 40 -10 41 -33 180 -45 153 -13 -76 92 -312 151 -245 61z"/> <path d="M5829 1822 c10 -16 -60 -49 -94 -44 -24 3 -17 -54 8 -70 14 -8 18 -5 10 8 -8 11 -5 27 6 33 26 16 167 -56 158 -80 -4 -11 13 -22 38 -25 39 -6 45 2 45 65 0 77 -9 82 -90 51 -31 -12 -66 -13 -84 -3 -43 24 23 49 82 31 37 -12 39 -10 14 19 -27 34 -113 48 -93 15z"/> <path d="M2004 1539 c-337 -111 -330 -107 -215 -139 419 -117 136 -421 -423 -454 l-203 -12 33 -52 c92 -146 264 -277 264 -201 0 21 10 39 21 39 12 0 17 7 12 15 -9 15 31 22 164 31 l68 4 3 -145 c3 -170 -31 -216 -185 -256 l-88 -22 65 -27 c56 -23 83 -22 191 7 69 18 143 33 165 33 21 0 50 14 64 30 14 17 46 30 71 30 52 0 120 57 95 81 -36 35 -125 29 -155 -11 -39 -51 -117 23 -102 97 5 24 14 113 20 199 16 225 94 302 345 343 46 8 95 28 110 45 28 34 158 96 286 136 77 25 261 -36 287 -95 3 -8 23 -15 44 -15 20 0 76 -26 123 -57 47 -32 119 -68 159 -81 40 -13 88 -41 108 -63 19 -21 56 -39 81 -39 25 0 53 -12 62 -26 18 -31 220 -134 261 -134 15 0 64 -19 110 -42 199 -102 429 -45 801 198 79 51 168 92 215 99 66 8 78 17 69 46 -13 41 202 161 266 148 122 -24 144 -32 134 -49 -17 -28 -269 -187 -345 -218 -58 -24 -65 -36 -65 -105 0 -102 -70 -177 -164 -176 -59 0 -62 3 -31 27 32 24 50 92 24 92 -46 0 -690 -342 -808 -429 -38 -28 -82 -51 -99 -51 -38 0 -203 -79 -239 -115 -88 -86 -430 -216 -508 -193 -19 6 -35 1 -35 -11 0 -34 519 -28 558 6 67 58 230 136 266 126 20 -5 48 2 62 15 13 14 36 21 50 17 14 -5 23 3 20 18 -4 16 9 26 30 24 20 -2 32 2 26 8 -16 15 51 64 89 64 16 1 45 19 63 40 19 21 71 49 115 61 45 12 77 30 71 41 -7 10 2 13 19 7 19 -8 31 -1 31 16 0 35 163 116 236 116 141 0 269 83 357 231 13 21 33 37 45 34 12 -3 22 9 22 27 0 21 11 28 31 20 18 -6 26 -3 19 8 -7 11 2 20 19 20 17 0 31 9 31 20 0 11 13 20 30 20 16 0 29 7 28 15 -9 52 3 75 22 45 17 -26 19 -26 20 3 0 39 59 66 85 40 26 -26 -14 -95 -123 -209 -155 -163 -205 -273 -216 -472 -5 -95 -11 -199 -13 -232 -3 -33 6 -71 19 -85 14 -13 29 -36 33 -50 27 -73 29 12 3 96 -75 241 30 507 259 660 57 37 120 100 141 138 37 68 114 110 225 122 69 8 178 -94 152 -142 -18 -33 -11 -44 47 -74 l68 -34 0 179 0 180 -65 2 c-70 3 -93 2 -247 -15 -77 -8 -109 -3 -133 21 -18 18 -46 32 -64 32 -17 0 -31 7 -31 16 0 8 -19 17 -43 19 -23 1 -62 21 -86 44 -24 23 -49 36 -56 29 -6 -6 -27 12 -46 41 -31 48 -38 49 -68 22 -40 -37 -63 -40 -56 -8 3 12 -6 26 -20 31 -14 5 -25 0 -25 -12 0 -40 -37 -22 -44 21 -6 40 -13 37 -106 -37 -183 -144 -813 -486 -898 -486 -44 0 -69 -8 -62 -20 26 -42 -91 7 -1055 441 -551 249 -498 235 -552 141 -24 -44 -41 -91 -38 -106 5 -24 -122 -97 -218 -125 -102 -29 -46 232 59 277 86 36 159 103 151 137 -5 22 -72 6 -293 -66z"/> <path d="M5215 1509 c-30 -17 -55 -39 -55 -49 0 -20 158 -69 173 -53 9 8 -47 134 -59 132 -2 0 -29 -14 -59 -30z"/> <path d="M1310 1369 c-11 -4 -58 -17 -104 -28 -242 -63 -263 -281 -27 -281 80 0 109 30 50 53 -32 13 -78 84 -63 100 51 50 118 24 156 -62 22 -50 52 -91 67 -91 15 0 42 -5 59 -12 50 -19 40 54 -19 133 -28 38 -41 72 -30 75 12 4 17 15 11 23 -21 35 145 56 243 31 125 -32 158 -13 56 33 -72 33 -335 50 -399 26z"/> <path d="M2352 1063 c-11 -17 44 -49 202 -117 47 -20 85 -42 85 -50 2 -40 -50 -30 -167 34 -151 81 -144 79 -160 39 -18 -48 35 -88 129 -98 17 -2 59 -15 93 -29 45 -18 73 -20 102 -4 21 11 44 16 50 9 18 -18 -8 -67 -36 -67 -48 0 -79 -58 -39 -73 22 -8 44 -1 59 20 13 18 39 33 57 33 22 0 33 17 33 50 0 31 -11 50 -30 50 -16 0 -30 10 -30 21 0 24 32 9 90 -43 22 -19 47 -36 55 -36 50 -3 143 -70 107 -78 -20 -4 -59 4 -86 18 -41 22 -51 22 -67 -3 -11 -19 -9 -32 7 -37 13 -4 42 -29 64 -55 58 -69 242 -94 225 -30 -12 46 15 56 65 22 26 -17 25 -24 -8 -49 -47 -35 -8 -101 46 -78 44 19 182 27 182 10 0 -20 113 -83 125 -70 7 6 33 -2 58 -18 26 -16 78 -35 115 -42 l68 -12 -38 42 c-21 23 -93 69 -160 100 -67 32 -138 76 -158 98 -20 22 -51 40 -69 40 -18 0 -68 18 -111 40 -43 22 -92 40 -109 41 -17 0 -107 41 -201 92 -489 263 -520 276 -548 230z"/> <path d="M1040 960 c-23 -15 -25 -27 -8 -54 45 -73 115 -347 94 -368 -41 -41 -239 69 -268 150 -28 78 -47 90 -66 40 -36 -93 128 -248 263 -248 91 0 141 -47 109 -101 -33 -54 -33 -54 79 -69 114 -16 143 16 73 77 -71 62 -116 143 -116 210 0 144 -111 394 -160 363z"/> <path d="M2833 967 c-28 -29 -10 -43 67 -50 84 -8 95 0 56 39 -26 26 -101 32 -123 11z"/> <path d="M2120 925 c216 -145 297 -313 219 -459 -251 -466 -1465 -503 -1761 -53 l-38 57 -2 -50 c-7 -154 -1 -165 160 -275 174 -120 196 -124 836 -136 296 -6 468 -2 476 11 7 11 40 20 73 20 148 0 357 174 357 297 0 57 56 93 148 94 69 1 82 7 84 43 1 23 8 57 15 74 6 18 4 32 -5 32 -58 0 -302 175 -309 222 -7 48 -34 78 -69 79 -19 0 -70 18 -114 39 -98 47 -138 50 -70 5z m401 -346 c36 -19 55 -79 26 -79 -21 0 -87 64 -87 83 0 22 14 21 61 -4z"/> <path d="M5290 620 c-29 -55 -28 -62 10 -100 23 -23 37 -49 31 -59 -6 -9 3 -22 20 -29 18 -6 26 -20 20 -30 -6 -10 -2 -22 8 -25 46 -16 49 -137 3 -137 -38 0 -41 -5 -21 -42 12 -23 17 -66 11 -95 -6 -29 14 -1 45 62 32 64 73 133 92 154 43 47 34 120 -19 149 -124 68 -174 118 -165 164 12 64 2 60 -35 -12z"/> <path d="M5933 631 c-36 -29 -49 -51 -35 -60 12 -7 22 -2 22 13 1 19 4 20 16 2 23 -36 69 2 61 50 -7 40 -8 40 -64 -5z"/> <path d="M2748 548 c7 -17 12 -35 12 -39 0 -5 22 2 49 14 60 27 48 57 -22 57 -39 0 -48 -8 -39 -32z"/> <path d="M5788 513 c-37 -31 -47 -51 -31 -61 13 -8 23 -5 23 7 0 11 10 21 21 21 23 0 79 49 79 69 0 24 -40 9 -92 -36z"/> <path d="M2811 349 c-17 -18 -31 -22 -31 -10 0 11 -10 21 -22 21 -16 0 -15 -9 2 -30 31 -37 88 -39 117 -3 43 52 -16 71 -66 22z"/> <path d="M3000 310 c-20 -24 -18 -32 8 -42 54 -21 101 7 72 42 -31 38 -49 38 -80 0z"/> <path d="M5554 205 c-16 -52 -36 -115 -43 -140 -19 -63 25 -58 49 5 10 28 29 50 41 50 12 0 17 -7 11 -17 -6 -9 3 -16 19 -16 16 0 29 8 29 18 0 9 9 12 20 5 12 -7 16 -20 11 -28 -9 -15 3 -18 87 -27 21 -2 33 -15 28 -29 -6 -15 4 -26 23 -26 27 0 29 7 10 42 -12 23 -27 36 -34 30 -6 -6 -51 42 -100 108 -107 145 -112 145 -151 25z"/> <path d="M3261 261 c-23 -15 -18 -23 26 -43 42 -20 59 -20 78 -1 44 44 -46 81 -104 44z"/> <path d="M2819 229 c-18 -22 -19 -37 -3 -53 30 -30 76 -8 89 42 14 51 -46 59 -86 11z"/> <path d="M180 162 c0 -27 13 -37 47 -35 29 2 44 13 38 28 -5 14 -17 20 -27 14 -10 -6 -18 -2 -18 10 0 11 -9 21 -20 21 -11 0 -20 -17 -20 -38z"/> <path d="M2910 100 c-7 -22 -28 -41 -46 -42 -19 -2 -43 -5 -54 -7 -11 -3 -40 -6 -65 -8 -25 -2 -45 -12 -45 -23 0 -27 114 -26 131 1 7 12 25 17 40 11 15 -6 33 -1 40 10 7 11 39 15 71 8 59 -13 69 -1 46 58 -18 46 -103 40 -118 -8z"/> <path d="M2484 105 c-20 -7 -20 -15 -2 -37 26 -32 90 -37 107 -9 7 11 27 14 45 7 22 -9 28 -5 17 12 -8 13 -25 20 -38 16 -13 -5 -41 -2 -63 6 -22 8 -52 10 -66 5z"/> <path d="M278 66 c-2 -9 -1 -24 0 -33 2 -10 -12 -11 -32 -3 -79 33 -131 36 -122 8 7 -22 68 -29 267 -34 192 -4 252 1 236 17 -22 22 -187 39 -187 19 0 -5 -31 -11 -69 -11 -38 -1 -65 5 -60 13 5 8 1 21 -11 28 -11 7 -21 5 -22 -4z"/> </g> </svg> 